<svg xmlns="http://www.w3.org/2000/svg" width="1600" height="900" viewBox="0 0 1600 900" role="img" aria-label="Runner in a rainy alley at night">
  <defs>
    <linearGradient id="night" x1="0" y1="0" x2="0" y2="1">
      <stop offset="0%" stop-color="#0c1925"/>
      <stop offset="70%" stop-color="#0b0f1a"/>
      <stop offset="100%" stop-color="#05070d"/>
    </linearGradient>
    <linearGradient id="rain" x1="0" y1="0" x2="0.3" y2="1">
      <stop offset="0%" stop-color="#6bd8ff" stop-opacity="0.6"/>
      <stop offset="100%" stop-color="#3aa0c7" stop-opacity="0"/>
    </linearGradient>
    <linearGradient id="sign" x1="0" y1="0" x2="1" y2="0">
      <stop offset="0%" stop-color="#5ff4ff"/>
      <stop offset="100%" stop-color="#5af6c7"/>
    </linearGradient>
    <filter id="mist" x="-10%" y="-10%" width="120%" height="120%">
      <feTurbulence type="fractalNoise" baseFrequency="0.7" numOctaves="2" seed="8"/>
      <feColorMatrix type="matrix" values="0 0 0 0 0 0 0 0 0 0 0 0 0 0 0 0 0 0 0.25 0"/>
      <feGaussianBlur stdDeviation="2"/>
    </filter>
  </defs>
  <rect width="1600" height="900" fill="url(#night)"/>
  <rect width="1600" height="900" fill="#0b1825" opacity="0.3" filter="url(#mist)"/>
  <g stroke="#0e2533" stroke-width="10" opacity="0.5">
    <line x1="200" y1="100" x2="200" y2="800"/>
    <line x1="1400" y1="100" x2="1400" y2="800"/>
    <line x1="800" y1="90" x2="800" y2="820" opacity="0.2"/>
  </g>
  <g opacity="0.4" stroke="#2b8fb5" stroke-width="2">
    <path d="M100 160c180 40 320 40 520-10"/>
    <path d="M1100 170c160-10 260-30 420-80"/>
  </g>
  <g fill="none" stroke="url(#rain)" stroke-width="3" stroke-linecap="round" opacity="0.7">
    <path d="M140 140c-12 60-14 120-6 200"/>
    <path d="M320 100c-20 90-10 220 16 340"/>
    <path d="M520 120c-16 110-10 230 12 360"/>
    <path d="M1180 130c-12 100-6 210 20 340"/>
    <path d="M1380 100c-14 120-6 230 26 360"/>
  </g>
  <rect x="1160" y="180" width="280" height="110" rx="12" fill="#0e2030" stroke="#61f1ff" stroke-width="5"/>
  <text x="1180" y="240" font-family="'Noto Sans TC', 'Inter', sans-serif" font-size="42" fill="#61f1ff" font-weight="700">跑在城市巷弄間</text>
  <text x="1180" y="280" font-family="'Noto Sans TC', 'Inter', sans-serif" font-size="36" fill="#61f1ff">Vibe Coding</text>
  <text x="1180" y="320" font-family="'Noto Sans TC', 'Inter', sans-serif" font-size="34" fill="#61f1ff">的大叔筆記</text>
  <g opacity="0.6">
    <rect x="240" y="220" width="240" height="100" rx="14" fill="#0c3242" stroke="#5af6c7" stroke-width="5"/>
    <polyline points="270,260 320,240 370,260" fill="none" stroke="#5af6c7" stroke-width="6" stroke-linecap="round"/>
    <line x1="286" y1="290" x2="396" y2="290" stroke="#5af6c7" stroke-width="6" stroke-linecap="round"/>
  </g>
  <g transform="translate(600 240)">
    <circle cx="160" cy="120" r="110" fill="#0d2f43" stroke="#63f2ff" stroke-width="8" opacity="0.8"/>
    <path d="M152 48c-16 20-14 42 0 68l-28 14-42-20c-30-6-52 16-48 46 16 56 52 96 108 120 36 8 62-10 78-42l30 6c12-4 24-22 16-42l-22-12c8-18 10-40-12-62-30-28-70-32-88-56z" fill="#63f2ff" opacity="0.8"/>
    <circle cx="166" cy="36" r="34" fill="#0e2533" opacity="0.9"/>
    <circle cx="166" cy="36" r="24" fill="#68f0d3" opacity="0.9"/>
    <rect x="186" y="120" width="46" height="66" rx="16" fill="#0c1925" opacity="0.7"/>
    <path d="M132 184c24 20 66 22 102 0" stroke="#0b1522" stroke-width="14" stroke-linecap="round" fill="none" opacity="0.5"/>
  </g>
  <g opacity="0.6" fill="#5af6c7">
    <circle cx="980" cy="660" r="6"/>
    <circle cx="1020" cy="640" r="8"/>
    <circle cx="1070" cy="680" r="10"/>
  </g>
  <rect x="620" y="660" width="360" height="50" rx="20" fill="#0d1a28" opacity="0.8"/>
  <ellipse cx="800" cy="740" rx="220" ry="32" fill="#06101c" opacity="0.7"/>
  <g fill="#63f2ff" opacity="0.85">
    <rect x="720" y="700" width="80" height="18" rx="8"/>
    <rect x="820" y="700" width="120" height="18" rx="8"/>
  </g>
</svg>
